G75*
G70*
%OFA0B0*%
%FSLAX24Y24*%
%IPPOS*%
%LPD*%
%AMOC8*
5,1,8,0,0,1.08239X$1,22.5*
%
%ADD10C,0.0680*%
%ADD11R,0.0680X0.0680*%
%ADD12R,0.0580X0.0580*%
D10*
X001612Y001524D03*
X003392Y001524D03*
X005202Y003554D03*
X003392Y004084D03*
X003202Y005054D03*
X004202Y005054D03*
X005202Y005054D03*
X006202Y005054D03*
X007202Y005054D03*
X008202Y005054D03*
X009202Y005054D03*
X010202Y005054D03*
X011202Y005054D03*
X012202Y005054D03*
X013202Y005054D03*
X014202Y005054D03*
X015202Y005054D03*
X016202Y005054D03*
X017202Y005054D03*
X018202Y005054D03*
X019202Y005054D03*
X020202Y005054D03*
X021202Y005054D03*
X022202Y005054D03*
X023202Y005054D03*
X024202Y005054D03*
X025202Y005054D03*
X026202Y005054D03*
X027202Y005054D03*
X028202Y005054D03*
X029202Y005054D03*
X030202Y005054D03*
X031702Y004554D03*
X032702Y004554D03*
X033702Y004554D03*
X034702Y004554D03*
X034702Y003554D03*
X033702Y003554D03*
X032702Y003554D03*
X031702Y003554D03*
X030702Y003554D03*
X029702Y003554D03*
X028702Y003554D03*
X027702Y003554D03*
X026702Y003554D03*
X023702Y003554D03*
X022702Y003554D03*
X021702Y003554D03*
X020702Y003554D03*
X019702Y003554D03*
X018702Y003554D03*
X017702Y003554D03*
X014702Y003554D03*
X013702Y003554D03*
X012702Y003554D03*
X011702Y003554D03*
X010702Y003554D03*
X009702Y003554D03*
X008702Y002904D03*
X007202Y003554D03*
X009702Y001554D03*
X010702Y001554D03*
X011702Y001554D03*
X012702Y001554D03*
X013702Y001554D03*
X014702Y001554D03*
X017702Y001554D03*
X018702Y001554D03*
X019702Y001554D03*
X020702Y001554D03*
X021702Y001554D03*
X022702Y001554D03*
X023702Y001554D03*
X026702Y001554D03*
X027702Y001554D03*
X028702Y001554D03*
X029702Y001554D03*
X030702Y001554D03*
X031702Y001554D03*
X032702Y001554D03*
X032702Y005554D03*
X033702Y005554D03*
X034702Y005554D03*
X034702Y006554D03*
X033702Y006554D03*
X032702Y006554D03*
X031702Y006554D03*
X031702Y005554D03*
X030202Y006054D03*
X029202Y006054D03*
X028202Y006054D03*
X027202Y006054D03*
X026202Y006054D03*
X025202Y006054D03*
X024202Y006054D03*
X023202Y006054D03*
X022202Y006054D03*
X021202Y006054D03*
X020202Y006054D03*
X019202Y006054D03*
X018202Y006054D03*
X017202Y006054D03*
X016202Y006054D03*
X015202Y006054D03*
X014202Y006054D03*
X013202Y006054D03*
X012202Y006054D03*
X011202Y006054D03*
X010202Y006054D03*
X009202Y006054D03*
X008202Y006054D03*
X007202Y006054D03*
X006202Y006054D03*
X005202Y006054D03*
X004202Y006054D03*
X003202Y006054D03*
X002202Y006054D03*
X001202Y006054D03*
X001202Y007054D03*
X002202Y007054D03*
X003202Y007054D03*
X004202Y007054D03*
X005202Y007054D03*
X006202Y007054D03*
X007202Y007054D03*
X008202Y007054D03*
X009202Y007054D03*
X010202Y007054D03*
X011202Y007054D03*
X012202Y007054D03*
X013202Y007054D03*
X014202Y007054D03*
X015202Y007054D03*
X016202Y007054D03*
X017202Y007054D03*
X018202Y007054D03*
X019202Y007054D03*
X020202Y007054D03*
X021202Y007054D03*
X022202Y007054D03*
X023202Y007054D03*
X024202Y007054D03*
X025202Y007054D03*
X026202Y007054D03*
X027202Y007054D03*
X028202Y007054D03*
X029202Y007054D03*
X030202Y007054D03*
X031702Y007554D03*
X032702Y007554D03*
X033702Y007554D03*
X034702Y007554D03*
X034702Y008554D03*
X033702Y008554D03*
X032702Y008554D03*
X031702Y008554D03*
X030202Y008054D03*
X029202Y008054D03*
X028202Y008054D03*
X027202Y008054D03*
X026202Y008054D03*
X025202Y008054D03*
X024202Y008054D03*
X023202Y008054D03*
X022202Y008054D03*
X021202Y008054D03*
X020202Y008054D03*
X019202Y008054D03*
X018202Y008054D03*
X017202Y008054D03*
X016202Y008054D03*
X015202Y008054D03*
X014202Y008054D03*
X013202Y008054D03*
X012202Y008054D03*
X011202Y008054D03*
X010202Y008054D03*
X009202Y008054D03*
X008202Y008054D03*
X007202Y008054D03*
X006202Y008054D03*
X005202Y008054D03*
X004202Y008054D03*
X003202Y008054D03*
X002202Y008054D03*
X001202Y008054D03*
X001202Y009054D03*
X002202Y009054D03*
X003202Y009054D03*
X004202Y009054D03*
X005202Y009054D03*
X006202Y009054D03*
X007202Y009054D03*
X008202Y009054D03*
X009202Y009054D03*
X010202Y009054D03*
X011202Y009054D03*
X012202Y009054D03*
X013202Y009054D03*
X014202Y009054D03*
X015202Y009054D03*
X016202Y009054D03*
X017202Y009054D03*
X018202Y009054D03*
X019202Y009054D03*
X020202Y009054D03*
X021202Y009054D03*
X022202Y009054D03*
X023202Y009054D03*
X024202Y009054D03*
X025202Y009054D03*
X026202Y009054D03*
X027202Y009054D03*
X028202Y009054D03*
X029202Y009054D03*
X030202Y009054D03*
X031702Y009554D03*
X032702Y009554D03*
X033702Y009554D03*
X034702Y009554D03*
X034702Y010554D03*
X033702Y010554D03*
X032702Y010554D03*
X031702Y010554D03*
X030202Y010054D03*
X029202Y010054D03*
X028202Y010054D03*
X027202Y010054D03*
X026202Y010054D03*
X025202Y010054D03*
X024202Y010054D03*
X023202Y010054D03*
X022202Y010054D03*
X021202Y010054D03*
X020202Y010054D03*
X019202Y010054D03*
X018202Y010054D03*
X017202Y010054D03*
X016202Y010054D03*
X015202Y010054D03*
X014202Y010054D03*
X013202Y010054D03*
X012202Y010054D03*
X011202Y010054D03*
X010202Y010054D03*
X009202Y010054D03*
X008202Y010054D03*
X007202Y010054D03*
X006202Y010054D03*
X005202Y010054D03*
X004202Y010054D03*
X003202Y010054D03*
X002202Y010054D03*
X001202Y010054D03*
X001202Y011054D03*
X002202Y011054D03*
X003202Y011054D03*
X004202Y011054D03*
X005202Y011054D03*
X006202Y011054D03*
X007202Y011054D03*
X008202Y011054D03*
X009202Y011054D03*
X010202Y011054D03*
X011202Y011054D03*
X012202Y011054D03*
X013202Y011054D03*
X014202Y011054D03*
X015202Y011054D03*
X016202Y011054D03*
X017202Y011054D03*
X018202Y011054D03*
X019202Y011054D03*
X020202Y011054D03*
X021202Y011054D03*
X022202Y011054D03*
X023202Y011054D03*
X024202Y011054D03*
X025202Y011054D03*
X026202Y011054D03*
X027202Y011054D03*
X028202Y011054D03*
X029202Y011054D03*
X030202Y011054D03*
X031702Y011554D03*
X032702Y011554D03*
X033702Y011554D03*
X034702Y011554D03*
X034702Y012554D03*
X033702Y012554D03*
X032702Y012554D03*
X031702Y012554D03*
X030202Y012054D03*
X029202Y012054D03*
X028202Y012054D03*
X027202Y012054D03*
X026202Y012054D03*
X025202Y012054D03*
X024202Y012054D03*
X023202Y012054D03*
X022202Y012054D03*
X021202Y012054D03*
X020202Y012054D03*
X019202Y012054D03*
X018202Y012054D03*
X017202Y012054D03*
X016202Y012054D03*
X015202Y012054D03*
X014202Y012054D03*
X013202Y012054D03*
X012202Y012054D03*
X011202Y012054D03*
X010202Y012054D03*
X009202Y012054D03*
X008202Y012054D03*
X007202Y012054D03*
X006202Y012054D03*
X005202Y012054D03*
X004202Y012054D03*
X003202Y012054D03*
X002202Y012054D03*
X001202Y012054D03*
X001202Y013054D03*
X002202Y013054D03*
X003202Y013054D03*
X004202Y013054D03*
X005202Y013054D03*
X006202Y013054D03*
X007202Y013054D03*
X008202Y013054D03*
X009202Y013054D03*
X010202Y013054D03*
X011202Y013054D03*
X012202Y013054D03*
X013202Y013054D03*
X014202Y013054D03*
X015202Y013054D03*
X016202Y013054D03*
X017202Y013054D03*
X018202Y013054D03*
X019202Y013054D03*
X020202Y013054D03*
X021202Y013054D03*
X022202Y013054D03*
X023202Y013054D03*
X024202Y013054D03*
X025202Y013054D03*
X026202Y013054D03*
X027202Y013054D03*
X028202Y013054D03*
X029202Y013054D03*
X030202Y013054D03*
X030202Y014054D03*
X029202Y014054D03*
X028202Y014054D03*
X027202Y014054D03*
X026202Y014054D03*
X025202Y014054D03*
X024202Y014054D03*
X023202Y014054D03*
X022202Y014054D03*
X021202Y014054D03*
X020202Y014054D03*
X019202Y014054D03*
X018202Y014054D03*
X017202Y014054D03*
X016202Y014054D03*
X015202Y014054D03*
X014202Y014054D03*
X013202Y014054D03*
X012202Y014054D03*
X011202Y014054D03*
X010202Y014054D03*
X009202Y014054D03*
X008202Y014054D03*
X007202Y014054D03*
X006202Y014054D03*
X005202Y014054D03*
X004202Y014054D03*
X003202Y014054D03*
X002202Y014054D03*
X001202Y014054D03*
X001202Y015054D03*
X002202Y015054D03*
X003202Y015054D03*
X004202Y015054D03*
X005202Y015054D03*
X006202Y015054D03*
X007202Y015054D03*
X008202Y015054D03*
X009202Y015054D03*
X010202Y015054D03*
X011202Y015054D03*
X012202Y015054D03*
X013202Y015054D03*
X014202Y015054D03*
X015202Y015054D03*
X016202Y015054D03*
X017202Y015054D03*
X018202Y015054D03*
X019202Y015054D03*
X020202Y015054D03*
X021202Y015054D03*
X022202Y015054D03*
X023202Y015054D03*
X024202Y015054D03*
X025202Y015054D03*
X026202Y015054D03*
X027202Y015054D03*
X028202Y015054D03*
X029202Y015054D03*
X030202Y015054D03*
X030202Y016054D03*
X029202Y016054D03*
X028202Y016054D03*
X027202Y016054D03*
X026202Y016054D03*
X025202Y016054D03*
X024202Y016054D03*
X023202Y016054D03*
X022202Y016054D03*
X021202Y016054D03*
X020202Y016054D03*
X019202Y016054D03*
X018202Y016054D03*
X017202Y016054D03*
X016202Y016054D03*
X015202Y016054D03*
X014202Y016054D03*
X013202Y016054D03*
X012202Y016054D03*
X011202Y016054D03*
X010202Y016054D03*
X009202Y016054D03*
X008202Y016054D03*
X007202Y016054D03*
X006202Y016054D03*
X005202Y016054D03*
X004202Y016054D03*
X003202Y016054D03*
X002202Y016054D03*
X001202Y016054D03*
X002202Y017054D03*
X003202Y017054D03*
X004202Y017054D03*
X005202Y017054D03*
X006202Y017054D03*
X007202Y017054D03*
X008202Y017054D03*
X009202Y017054D03*
X010202Y017054D03*
X011202Y017054D03*
X012202Y017054D03*
X013202Y017054D03*
X014202Y017054D03*
X015202Y017054D03*
X016202Y017054D03*
X017202Y017054D03*
X018202Y017054D03*
X019202Y017054D03*
X020202Y017054D03*
X021202Y017054D03*
X022202Y017054D03*
X023202Y017054D03*
X024202Y017054D03*
X025202Y017054D03*
X026202Y017054D03*
X027202Y017054D03*
X028202Y017054D03*
X029202Y017054D03*
X030202Y017054D03*
X031702Y016554D03*
X032702Y016554D03*
X033702Y016554D03*
X034702Y016554D03*
X034702Y015554D03*
X033702Y015554D03*
X032702Y015554D03*
X031702Y015554D03*
X031702Y014554D03*
X032702Y014554D03*
X033702Y014554D03*
X034702Y014554D03*
X034702Y013554D03*
X033702Y013554D03*
X032702Y013554D03*
X031702Y013554D03*
X031702Y017554D03*
X032702Y017554D03*
X033702Y017554D03*
X034702Y017554D03*
X034702Y018554D03*
X033702Y018554D03*
X032702Y018554D03*
X031702Y018554D03*
X030702Y018554D03*
X029702Y018554D03*
X028702Y018554D03*
X027702Y018554D03*
X026702Y018554D03*
X025702Y018554D03*
X024702Y018554D03*
X024702Y020554D03*
X025702Y020554D03*
X026702Y020554D03*
X027702Y020554D03*
X028702Y020554D03*
X029702Y020554D03*
X030702Y020554D03*
X031702Y019554D03*
X032702Y019554D03*
X033702Y019554D03*
X034702Y019554D03*
X034702Y020554D03*
X033702Y020554D03*
X020702Y020554D03*
X019702Y020554D03*
X018702Y020554D03*
X017702Y020554D03*
X016702Y020554D03*
X015702Y020554D03*
X014702Y020554D03*
X012102Y020554D03*
X011102Y020554D03*
X010102Y020554D03*
X009102Y020554D03*
X008102Y020554D03*
X007102Y020554D03*
X006102Y020554D03*
X003392Y020584D03*
X001612Y020584D03*
X004302Y018554D03*
X003392Y018024D03*
X001612Y018024D03*
X006102Y018554D03*
X007102Y018554D03*
X008102Y018554D03*
X009102Y018554D03*
X010102Y018554D03*
X011102Y018554D03*
X012102Y018554D03*
X014702Y018554D03*
X015702Y018554D03*
X016702Y018554D03*
X017702Y018554D03*
X018702Y018554D03*
X019702Y018554D03*
X020702Y018554D03*
X002202Y005054D03*
X001612Y004084D03*
D11*
X001202Y005054D03*
X016702Y003554D03*
X016702Y001554D03*
X025702Y001554D03*
X025702Y003554D03*
X001202Y017054D03*
X013102Y018554D03*
X013102Y020554D03*
X021702Y020554D03*
X023702Y020554D03*
X023702Y018554D03*
X021702Y018554D03*
D12*
X005002Y020004D03*
X004202Y020004D03*
X004202Y020804D03*
X005002Y020804D03*
X005202Y002104D03*
X006202Y002104D03*
X007202Y002104D03*
X007202Y001304D03*
X006202Y001304D03*
X005202Y001304D03*
X004202Y001304D03*
X004202Y002104D03*
X008702Y002104D03*
X008702Y001304D03*
M02*
