%
M48
M72
T01C0.0400
%
T01
X1612Y1524
X3392Y1524
X5202Y3554
X3392Y4084
X3202Y5054
X4202Y5054
X5202Y5054
X6202Y5054
X7202Y5054
X8202Y5054
X9202Y5054
X10202Y5054
X11202Y5054
X12202Y5054
X13202Y5054
X14202Y5054
X15202Y5054
X16202Y5054
X17202Y5054
X18202Y5054
X19202Y5054
X20202Y5054
X21202Y5054
X22202Y5054
X23202Y5054
X24202Y5054
X25202Y5054
X26202Y5054
X27202Y5054
X28202Y5054
X29202Y5054
X30202Y5054
X31702Y4554
X32702Y4554
X33702Y4554
X34702Y4554
X34702Y3554
X33702Y3554
X32702Y3554
X31702Y3554
X30702Y3554
X29702Y3554
X28702Y3554
X27702Y3554
X26702Y3554
X25702Y3554
X23702Y3554
X22702Y3554
X21702Y3554
X20702Y3554
X19702Y3554
X18702Y3554
X17702Y3554
X16702Y3554
X14702Y3554
X13702Y3554
X12702Y3554
X11702Y3554
X10702Y3554
X9702Y3554
X8702Y2904
X7202Y3554
X9702Y1554
X10702Y1554
X11702Y1554
X12702Y1554
X13702Y1554
X14702Y1554
X16702Y1554
X17702Y1554
X18702Y1554
X19702Y1554
X20702Y1554
X21702Y1554
X22702Y1554
X23702Y1554
X25702Y1554
X26702Y1554
X27702Y1554
X28702Y1554
X29702Y1554
X30702Y1554
X31702Y1554
X32702Y1554
X32702Y5554
X33702Y5554
X34702Y5554
X34702Y6554
X33702Y6554
X32702Y6554
X31702Y6554
X31702Y5554
X30202Y6054
X29202Y6054
X28202Y6054
X27202Y6054
X26202Y6054
X25202Y6054
X24202Y6054
X23202Y6054
X22202Y6054
X21202Y6054
X20202Y6054
X19202Y6054
X18202Y6054
X17202Y6054
X16202Y6054
X15202Y6054
X14202Y6054
X13202Y6054
X12202Y6054
X11202Y6054
X10202Y6054
X9202Y6054
X8202Y6054
X7202Y6054
X6202Y6054
X5202Y6054
X4202Y6054
X3202Y6054
X2202Y6054
X1202Y6054
X1202Y7054
X2202Y7054
X3202Y7054
X4202Y7054
X5202Y7054
X6202Y7054
X7202Y7054
X8202Y7054
X9202Y7054
X10202Y7054
X11202Y7054
X12202Y7054
X13202Y7054
X14202Y7054
X15202Y7054
X16202Y7054
X17202Y7054
X18202Y7054
X19202Y7054
X20202Y7054
X21202Y7054
X22202Y7054
X23202Y7054
X24202Y7054
X25202Y7054
X26202Y7054
X27202Y7054
X28202Y7054
X29202Y7054
X30202Y7054
X31702Y7554
X32702Y7554
X33702Y7554
X34702Y7554
X34702Y8554
X33702Y8554
X32702Y8554
X31702Y8554
X30202Y8054
X29202Y8054
X28202Y8054
X27202Y8054
X26202Y8054
X25202Y8054
X24202Y8054
X23202Y8054
X22202Y8054
X21202Y8054
X20202Y8054
X19202Y8054
X18202Y8054
X17202Y8054
X16202Y8054
X15202Y8054
X14202Y8054
X13202Y8054
X12202Y8054
X11202Y8054
X10202Y8054
X9202Y8054
X8202Y8054
X7202Y8054
X6202Y8054
X5202Y8054
X4202Y8054
X3202Y8054
X2202Y8054
X1202Y8054
X1202Y9054
X2202Y9054
X3202Y9054
X4202Y9054
X5202Y9054
X6202Y9054
X7202Y9054
X8202Y9054
X9202Y9054
X10202Y9054
X11202Y9054
X12202Y9054
X13202Y9054
X14202Y9054
X15202Y9054
X16202Y9054
X17202Y9054
X18202Y9054
X19202Y9054
X20202Y9054
X21202Y9054
X22202Y9054
X23202Y9054
X24202Y9054
X25202Y9054
X26202Y9054
X27202Y9054
X28202Y9054
X29202Y9054
X30202Y9054
X31702Y9554
X32702Y9554
X33702Y9554
X34702Y9554
X34702Y10554
X33702Y10554
X32702Y10554
X31702Y10554
X30202Y10054
X29202Y10054
X28202Y10054
X27202Y10054
X26202Y10054
X25202Y10054
X24202Y10054
X23202Y10054
X22202Y10054
X21202Y10054
X20202Y10054
X19202Y10054
X18202Y10054
X17202Y10054
X16202Y10054
X15202Y10054
X14202Y10054
X13202Y10054
X12202Y10054
X11202Y10054
X10202Y10054
X9202Y10054
X8202Y10054
X7202Y10054
X6202Y10054
X5202Y10054
X4202Y10054
X3202Y10054
X2202Y10054
X1202Y10054
X1202Y11054
X2202Y11054
X3202Y11054
X4202Y11054
X5202Y11054
X6202Y11054
X7202Y11054
X8202Y11054
X9202Y11054
X10202Y11054
X11202Y11054
X12202Y11054
X13202Y11054
X14202Y11054
X15202Y11054
X16202Y11054
X17202Y11054
X18202Y11054
X19202Y11054
X20202Y11054
X21202Y11054
X22202Y11054
X23202Y11054
X24202Y11054
X25202Y11054
X26202Y11054
X27202Y11054
X28202Y11054
X29202Y11054
X30202Y11054
X31702Y11554
X32702Y11554
X33702Y11554
X34702Y11554
X34702Y12554
X33702Y12554
X32702Y12554
X31702Y12554
X30202Y12054
X29202Y12054
X28202Y12054
X27202Y12054
X26202Y12054
X25202Y12054
X24202Y12054
X23202Y12054
X22202Y12054
X21202Y12054
X20202Y12054
X19202Y12054
X18202Y12054
X17202Y12054
X16202Y12054
X15202Y12054
X14202Y12054
X13202Y12054
X12202Y12054
X11202Y12054
X10202Y12054
X9202Y12054
X8202Y12054
X7202Y12054
X6202Y12054
X5202Y12054
X4202Y12054
X3202Y12054
X2202Y12054
X1202Y12054
X1202Y13054
X2202Y13054
X3202Y13054
X4202Y13054
X5202Y13054
X6202Y13054
X7202Y13054
X8202Y13054
X9202Y13054
X10202Y13054
X11202Y13054
X12202Y13054
X13202Y13054
X14202Y13054
X15202Y13054
X16202Y13054
X17202Y13054
X18202Y13054
X19202Y13054
X20202Y13054
X21202Y13054
X22202Y13054
X23202Y13054
X24202Y13054
X25202Y13054
X26202Y13054
X27202Y13054
X28202Y13054
X29202Y13054
X30202Y13054
X30202Y14054
X29202Y14054
X28202Y14054
X27202Y14054
X26202Y14054
X25202Y14054
X24202Y14054
X23202Y14054
X22202Y14054
X21202Y14054
X20202Y14054
X19202Y14054
X18202Y14054
X17202Y14054
X16202Y14054
X15202Y14054
X14202Y14054
X13202Y14054
X12202Y14054
X11202Y14054
X10202Y14054
X9202Y14054
X8202Y14054
X7202Y14054
X6202Y14054
X5202Y14054
X4202Y14054
X3202Y14054
X2202Y14054
X1202Y14054
X1202Y15054
X2202Y15054
X3202Y15054
X4202Y15054
X5202Y15054
X6202Y15054
X7202Y15054
X8202Y15054
X9202Y15054
X10202Y15054
X11202Y15054
X12202Y15054
X13202Y15054
X14202Y15054
X15202Y15054
X16202Y15054
X17202Y15054
X18202Y15054
X19202Y15054
X20202Y15054
X21202Y15054
X22202Y15054
X23202Y15054
X24202Y15054
X25202Y15054
X26202Y15054
X27202Y15054
X28202Y15054
X29202Y15054
X30202Y15054
X30202Y16054
X29202Y16054
X28202Y16054
X27202Y16054
X26202Y16054
X25202Y16054
X24202Y16054
X23202Y16054
X22202Y16054
X21202Y16054
X20202Y16054
X19202Y16054
X18202Y16054
X17202Y16054
X16202Y16054
X15202Y16054
X14202Y16054
X13202Y16054
X12202Y16054
X11202Y16054
X10202Y16054
X9202Y16054
X8202Y16054
X7202Y16054
X6202Y16054
X5202Y16054
X4202Y16054
X3202Y16054
X2202Y16054
X1202Y16054
X1202Y17054
X2202Y17054
X3202Y17054
X4202Y17054
X5202Y17054
X6202Y17054
X7202Y17054
X8202Y17054
X9202Y17054
X10202Y17054
X11202Y17054
X12202Y17054
X13202Y17054
X14202Y17054
X15202Y17054
X16202Y17054
X17202Y17054
X18202Y17054
X19202Y17054
X20202Y17054
X21202Y17054
X22202Y17054
X23202Y17054
X24202Y17054
X25202Y17054
X26202Y17054
X27202Y17054
X28202Y17054
X29202Y17054
X30202Y17054
X31702Y16554
X32702Y16554
X33702Y16554
X34702Y16554
X34702Y15554
X33702Y15554
X32702Y15554
X31702Y15554
X31702Y14554
X32702Y14554
X33702Y14554
X34702Y14554
X34702Y13554
X33702Y13554
X32702Y13554
X31702Y13554
X31702Y17554
X32702Y17554
X33702Y17554
X34702Y17554
X34702Y18554
X33702Y18554
X32702Y18554
X31702Y18554
X30702Y18554
X29702Y18554
X28702Y18554
X27702Y18554
X26702Y18554
X25702Y18554
X24702Y18554
X23702Y18554
X21702Y18554
X20702Y18554
X19702Y18554
X18702Y18554
X17702Y18554
X16702Y18554
X15702Y18554
X14702Y18554
X13102Y18554
X12102Y18554
X11102Y18554
X10102Y18554
X9102Y18554
X8102Y18554
X7102Y18554
X6102Y18554
X4302Y18554
X3392Y18024
X1612Y18024
X1612Y20584
X3392Y20584
X6102Y20554
X7102Y20554
X8102Y20554
X9102Y20554
X10102Y20554
X11102Y20554
X12102Y20554
X13102Y20554
X14702Y20554
X15702Y20554
X16702Y20554
X17702Y20554
X18702Y20554
X19702Y20554
X20702Y20554
X21702Y20554
X23702Y20554
X24702Y20554
X25702Y20554
X26702Y20554
X27702Y20554
X28702Y20554
X29702Y20554
X30702Y20554
X31702Y19554
X32702Y19554
X33702Y19554
X34702Y19554
X34702Y20554
X33702Y20554
X2202Y5054
X1202Y5054
X1612Y4084
M30
