G75*
G70*
%OFA0B0*%
%FSLAX24Y24*%
%IPPOS*%
%LPD*%
%AMOC8*
5,1,8,0,0,1.08239X$1,22.5*
%
%ADD10C,0.0100*%
%ADD11C,0.0220*%
%ADD12C,0.0240*%
%ADD13C,0.0110*%
%ADD14C,0.0070*%
%ADD15R,0.0200X0.0100*%
%ADD16R,0.0200X0.0300*%
%ADD17C,0.0050*%
%ADD18R,0.0200X0.0450*%
%ADD19R,0.0200X0.0400*%
D10*
X000702Y016554D02*
X000702Y017554D01*
X030702Y017554D01*
X030702Y016554D01*
X000702Y016554D01*
D11*
X000702Y005484D02*
X030702Y005484D01*
X030702Y004584D02*
X000702Y004584D01*
D12*
X000702Y004654D02*
X000702Y005454D01*
X030702Y005454D02*
X030702Y004654D01*
D13*
X000555Y002676D02*
X000457Y002774D01*
X000457Y002971D01*
X000555Y003069D01*
X000752Y003069D01*
X000752Y002873D01*
X000949Y003069D02*
X001047Y002971D01*
X001047Y002774D01*
X000949Y002676D01*
X000555Y002676D01*
X000457Y003320D02*
X001047Y003320D01*
X000457Y003714D01*
X001047Y003714D01*
X001047Y003965D02*
X000457Y003965D01*
X000457Y004260D01*
X000555Y004358D01*
X000949Y004358D01*
X001047Y004260D01*
X001047Y003965D01*
X001047Y017750D02*
X000752Y017750D01*
X000850Y017947D01*
X000850Y018045D01*
X000752Y018144D01*
X000555Y018144D01*
X000457Y018045D01*
X000457Y017849D01*
X000555Y017750D01*
X001047Y017750D02*
X001047Y018144D01*
X001047Y018395D02*
X000653Y018395D01*
X000457Y018592D01*
X000653Y018788D01*
X001047Y018788D01*
D14*
X011719Y019311D02*
X011719Y019598D01*
X011791Y019670D01*
X011935Y019670D01*
X012006Y019598D01*
X012006Y019526D01*
X011935Y019454D01*
X011719Y019454D01*
X011719Y019311D02*
X011791Y019239D01*
X011935Y019239D01*
X012006Y019311D01*
X012180Y019311D02*
X012180Y019598D01*
X012251Y019670D01*
X012467Y019670D01*
X012467Y019239D01*
X012251Y019239D01*
X012180Y019311D01*
X012719Y019511D02*
X012791Y019439D01*
X012935Y019439D01*
X013006Y019511D01*
X013006Y019583D01*
X012935Y019654D01*
X012791Y019654D01*
X012719Y019583D01*
X012719Y019511D01*
X012791Y019654D02*
X012719Y019726D01*
X012719Y019798D01*
X012791Y019870D01*
X012935Y019870D01*
X013006Y019798D01*
X013006Y019726D01*
X012935Y019654D01*
X013180Y019511D02*
X013180Y019798D01*
X013251Y019870D01*
X013467Y019870D01*
X013467Y019439D01*
X013251Y019439D01*
X013180Y019511D01*
X014279Y019588D02*
X014566Y019301D01*
X014566Y019229D01*
X014740Y019301D02*
X014740Y019588D01*
X014811Y019660D01*
X015027Y019660D01*
X015027Y019229D01*
X014811Y019229D01*
X014740Y019301D01*
X014566Y019660D02*
X014279Y019660D01*
X014279Y019588D01*
X015279Y019573D02*
X015351Y019644D01*
X015566Y019644D01*
X015566Y019501D01*
X015495Y019429D01*
X015351Y019429D01*
X015279Y019501D01*
X015279Y019573D01*
X015423Y019788D02*
X015566Y019644D01*
X015423Y019788D02*
X015279Y019860D01*
X015740Y019788D02*
X015740Y019501D01*
X015811Y019429D01*
X016027Y019429D01*
X016027Y019860D01*
X015811Y019860D01*
X015740Y019788D01*
X016279Y019660D02*
X016566Y019660D01*
X016566Y019444D01*
X016423Y019516D01*
X016351Y019516D01*
X016279Y019444D01*
X016279Y019301D01*
X016351Y019229D01*
X016495Y019229D01*
X016566Y019301D01*
X016740Y019301D02*
X016811Y019229D01*
X017027Y019229D01*
X017027Y019660D01*
X016811Y019660D01*
X016740Y019588D01*
X016740Y019301D01*
X017279Y019644D02*
X017566Y019644D01*
X017351Y019860D01*
X017351Y019429D01*
X017740Y019501D02*
X017740Y019788D01*
X017811Y019860D01*
X018027Y019860D01*
X018027Y019429D01*
X017811Y019429D01*
X017740Y019501D01*
X018279Y019516D02*
X018351Y019444D01*
X018279Y019373D01*
X018279Y019301D01*
X018351Y019229D01*
X018495Y019229D01*
X018566Y019301D01*
X018740Y019301D02*
X018740Y019588D01*
X018811Y019660D01*
X019027Y019660D01*
X019027Y019229D01*
X018811Y019229D01*
X018740Y019301D01*
X018566Y019588D02*
X018495Y019660D01*
X018351Y019660D01*
X018279Y019588D01*
X018279Y019516D01*
X018351Y019444D02*
X018423Y019444D01*
X019279Y019429D02*
X019566Y019429D01*
X019279Y019716D01*
X019279Y019788D01*
X019351Y019860D01*
X019495Y019860D01*
X019566Y019788D01*
X019740Y019788D02*
X019811Y019860D01*
X020027Y019860D01*
X020027Y019429D01*
X019811Y019429D01*
X019740Y019501D01*
X019740Y019788D01*
X020423Y019660D02*
X020423Y019229D01*
X020566Y019229D02*
X020279Y019229D01*
X020566Y019516D02*
X020423Y019660D01*
X020740Y019588D02*
X020740Y019301D01*
X020811Y019229D01*
X021027Y019229D01*
X021027Y019660D01*
X020811Y019660D01*
X020740Y019588D01*
X021279Y019501D02*
X021351Y019429D01*
X021495Y019429D01*
X021566Y019501D01*
X021279Y019788D01*
X021279Y019501D01*
X021279Y019788D02*
X021351Y019860D01*
X021495Y019860D01*
X021566Y019788D01*
X021566Y019501D01*
X021740Y019501D02*
X021740Y019788D01*
X021811Y019860D01*
X022027Y019860D01*
X022027Y019429D01*
X021811Y019429D01*
X021740Y019501D01*
X021873Y002860D02*
X021730Y002716D01*
X021730Y002429D01*
X021556Y002501D02*
X021485Y002429D01*
X021341Y002429D01*
X021269Y002501D01*
X021269Y002644D01*
X021341Y002716D01*
X021413Y002716D01*
X021556Y002644D01*
X021556Y002860D01*
X021269Y002860D01*
X021017Y002516D02*
X020873Y002660D01*
X020730Y002516D01*
X020730Y002229D01*
X020730Y002444D02*
X021017Y002444D01*
X021017Y002516D02*
X021017Y002229D01*
X020556Y002444D02*
X020269Y002444D01*
X020341Y002229D02*
X020341Y002660D01*
X020556Y002444D01*
X020017Y002429D02*
X020017Y002716D01*
X019873Y002860D01*
X019730Y002716D01*
X019730Y002429D01*
X019556Y002501D02*
X019485Y002429D01*
X019341Y002429D01*
X019269Y002501D01*
X019269Y002573D01*
X019341Y002644D01*
X019413Y002644D01*
X019341Y002644D02*
X019269Y002716D01*
X019269Y002788D01*
X019341Y002860D01*
X019485Y002860D01*
X019556Y002788D01*
X019730Y002644D02*
X020017Y002644D01*
X019017Y002516D02*
X019017Y002229D01*
X019017Y002444D02*
X018730Y002444D01*
X018730Y002516D02*
X018730Y002229D01*
X018556Y002229D02*
X018269Y002516D01*
X018269Y002588D01*
X018341Y002660D01*
X018485Y002660D01*
X018556Y002588D01*
X018730Y002516D02*
X018873Y002660D01*
X019017Y002516D01*
X018556Y002229D02*
X018269Y002229D01*
X018017Y002429D02*
X018017Y002716D01*
X017873Y002860D01*
X017730Y002716D01*
X017730Y002429D01*
X017556Y002429D02*
X017269Y002429D01*
X017413Y002429D02*
X017413Y002860D01*
X017556Y002716D01*
X017730Y002644D02*
X018017Y002644D01*
X017017Y002516D02*
X017017Y002229D01*
X017017Y002444D02*
X016730Y002444D01*
X016730Y002516D02*
X016730Y002229D01*
X016556Y002301D02*
X016269Y002588D01*
X016269Y002301D01*
X016341Y002229D01*
X016485Y002229D01*
X016556Y002301D01*
X016556Y002588D01*
X016485Y002660D01*
X016341Y002660D01*
X016269Y002588D01*
X016730Y002516D02*
X016873Y002660D01*
X017017Y002516D01*
X021730Y002644D02*
X022017Y002644D01*
X022017Y002716D02*
X022017Y002429D01*
X022269Y002373D02*
X022341Y002444D01*
X022556Y002444D01*
X022556Y002301D01*
X022485Y002229D01*
X022341Y002229D01*
X022269Y002301D01*
X022269Y002373D01*
X022413Y002588D02*
X022556Y002444D01*
X022730Y002444D02*
X023017Y002444D01*
X023017Y002516D02*
X022873Y002660D01*
X022730Y002516D01*
X022730Y002229D01*
X023017Y002229D02*
X023017Y002516D01*
X023269Y002788D02*
X023556Y002501D01*
X023556Y002429D01*
X023730Y002429D02*
X023730Y002716D01*
X023873Y002860D01*
X024017Y002716D01*
X024017Y002429D01*
X024017Y002644D02*
X023730Y002644D01*
X023556Y002860D02*
X023269Y002860D01*
X023269Y002788D01*
X022413Y002588D02*
X022269Y002660D01*
X022017Y002716D02*
X021873Y002860D01*
X025269Y002588D02*
X025269Y002516D01*
X025341Y002444D01*
X025485Y002444D01*
X025556Y002516D01*
X025556Y002588D01*
X025485Y002660D01*
X025341Y002660D01*
X025269Y002588D01*
X025341Y002444D02*
X025269Y002373D01*
X025269Y002301D01*
X025341Y002229D01*
X025485Y002229D01*
X025556Y002301D01*
X025556Y002373D01*
X025485Y002444D01*
X025730Y002444D02*
X026017Y002444D01*
X026017Y002516D02*
X025873Y002660D01*
X025730Y002516D01*
X025730Y002229D01*
X026017Y002229D02*
X026017Y002516D01*
X026269Y002501D02*
X026341Y002429D01*
X026485Y002429D01*
X026556Y002501D01*
X026485Y002644D02*
X026269Y002644D01*
X026269Y002501D02*
X026269Y002788D01*
X026341Y002860D01*
X026485Y002860D01*
X026556Y002788D01*
X026556Y002716D01*
X026485Y002644D01*
X026730Y002644D02*
X027017Y002644D01*
X027017Y002716D02*
X026873Y002860D01*
X026730Y002716D01*
X026730Y002429D01*
X027017Y002429D02*
X027017Y002716D01*
D15*
X026702Y002994D03*
X027702Y002094D03*
X028702Y002994D03*
X029702Y002094D03*
X030702Y002994D03*
X031702Y002094D03*
X032702Y002994D03*
X025702Y002094D03*
X023702Y002994D03*
X022702Y002094D03*
X021702Y002994D03*
X020702Y002094D03*
X019702Y002994D03*
X018702Y002094D03*
X017702Y002994D03*
X016702Y002094D03*
X014702Y002994D03*
X013702Y002094D03*
X012702Y002994D03*
X011702Y002094D03*
X010702Y002994D03*
X009702Y002094D03*
X010102Y019104D03*
X011102Y020004D03*
X012102Y019104D03*
X013102Y020004D03*
X014712Y019094D03*
X015712Y019994D03*
X016712Y019094D03*
X017712Y019994D03*
X018712Y019094D03*
X019712Y019994D03*
X020712Y019094D03*
X021712Y019994D03*
X023702Y020004D03*
X024702Y020004D03*
X025702Y020004D03*
X026702Y020004D03*
X027702Y020004D03*
X028702Y020004D03*
X029702Y020004D03*
X030702Y020004D03*
X030702Y019104D03*
X029702Y019104D03*
X028702Y019104D03*
X027702Y019104D03*
X026702Y019104D03*
X025702Y019104D03*
X024702Y019104D03*
X023702Y019104D03*
X009102Y020004D03*
X008102Y019104D03*
X007102Y020004D03*
X006102Y020004D03*
X006102Y019104D03*
D16*
X012102Y019904D03*
X013102Y019204D03*
X014712Y019894D03*
X015712Y019194D03*
X016712Y019894D03*
X017712Y019194D03*
X018712Y019894D03*
X019712Y019194D03*
X020712Y019894D03*
X021712Y019194D03*
X022702Y002894D03*
X023702Y002194D03*
X025702Y002894D03*
X026702Y002194D03*
X021702Y002194D03*
X020702Y002894D03*
X019702Y002194D03*
X018702Y002894D03*
X017702Y002194D03*
X016702Y002894D03*
D17*
X015077Y002840D02*
X015077Y002659D01*
X014987Y002569D01*
X014896Y002659D01*
X014896Y002840D01*
X014782Y002840D02*
X014692Y002840D01*
X014737Y002840D02*
X014737Y002569D01*
X014782Y002569D02*
X014692Y002569D01*
X014586Y002569D02*
X014586Y002840D01*
X014405Y002569D01*
X014405Y002840D01*
X014027Y002444D02*
X014027Y002264D01*
X013982Y002219D01*
X013891Y002219D01*
X013846Y002264D01*
X013846Y002354D01*
X013937Y002354D01*
X014027Y002444D02*
X013982Y002490D01*
X013891Y002490D01*
X013846Y002444D01*
X013732Y002490D02*
X013552Y002219D01*
X013552Y002490D01*
X013437Y002490D02*
X013302Y002490D01*
X013257Y002444D01*
X013257Y002264D01*
X013302Y002219D01*
X013437Y002219D01*
X013437Y002490D01*
X013732Y002490D02*
X013732Y002219D01*
X013027Y002614D02*
X013027Y002794D01*
X012982Y002840D01*
X012891Y002840D01*
X012846Y002794D01*
X012846Y002704D02*
X012937Y002704D01*
X012846Y002704D02*
X012846Y002614D01*
X012891Y002569D01*
X012982Y002569D01*
X013027Y002614D01*
X012732Y002569D02*
X012732Y002840D01*
X012552Y002569D01*
X012552Y002840D01*
X012437Y002840D02*
X012437Y002569D01*
X012302Y002569D01*
X012257Y002614D01*
X012257Y002794D01*
X012302Y002840D01*
X012437Y002840D01*
X012177Y002490D02*
X011996Y002490D01*
X012041Y002399D02*
X011996Y002354D01*
X011996Y002264D01*
X012041Y002219D01*
X012132Y002219D01*
X012177Y002264D01*
X012177Y002354D02*
X012087Y002399D01*
X012041Y002399D01*
X012177Y002354D02*
X012177Y002490D01*
X011882Y002490D02*
X011882Y002309D01*
X011792Y002219D01*
X011702Y002309D01*
X011702Y002490D01*
X011027Y002614D02*
X010982Y002569D01*
X010891Y002569D01*
X010846Y002614D01*
X010846Y002659D01*
X010891Y002704D01*
X010937Y002704D01*
X010891Y002704D02*
X010846Y002749D01*
X010846Y002794D01*
X010891Y002840D01*
X010982Y002840D01*
X011027Y002794D01*
X010732Y002840D02*
X010732Y002659D01*
X010642Y002569D01*
X010552Y002659D01*
X010552Y002840D01*
X010437Y002794D02*
X010392Y002840D01*
X010302Y002840D01*
X010257Y002794D01*
X010257Y002749D01*
X010302Y002704D01*
X010257Y002659D01*
X010257Y002614D01*
X010302Y002569D01*
X010392Y002569D01*
X010437Y002614D01*
X010347Y002704D02*
X010302Y002704D01*
X010027Y002490D02*
X009891Y002490D01*
X009846Y002444D01*
X009846Y002354D01*
X009891Y002309D01*
X010027Y002309D01*
X010027Y002219D02*
X010027Y002490D01*
X009937Y002309D02*
X009846Y002219D01*
X009732Y002264D02*
X009687Y002219D01*
X009597Y002219D01*
X009552Y002264D01*
X009552Y002309D01*
X009597Y002354D01*
X009687Y002354D01*
X009732Y002399D01*
X009732Y002444D01*
X009687Y002490D01*
X009597Y002490D01*
X009552Y002444D01*
X009437Y002490D02*
X009257Y002490D01*
X009347Y002490D02*
X009347Y002219D01*
X027257Y002264D02*
X027302Y002219D01*
X027392Y002219D01*
X027437Y002264D01*
X027257Y002444D01*
X027257Y002264D01*
X027437Y002264D02*
X027437Y002444D01*
X027392Y002490D01*
X027302Y002490D01*
X027257Y002444D01*
X027552Y002219D02*
X027732Y002219D01*
X027642Y002219D02*
X027642Y002490D01*
X027732Y002399D01*
X027846Y002399D02*
X027846Y002219D01*
X027846Y002354D02*
X028027Y002354D01*
X028027Y002399D02*
X027937Y002490D01*
X027846Y002399D01*
X028027Y002399D02*
X028027Y002219D01*
X028257Y002569D02*
X028437Y002569D01*
X028347Y002569D02*
X028347Y002840D01*
X028437Y002749D01*
X028552Y002569D02*
X028732Y002569D01*
X028642Y002569D02*
X028642Y002840D01*
X028732Y002749D01*
X028846Y002749D02*
X028846Y002569D01*
X028846Y002704D02*
X029027Y002704D01*
X029027Y002749D02*
X028937Y002840D01*
X028846Y002749D01*
X029027Y002749D02*
X029027Y002569D01*
X029257Y002444D02*
X029257Y002399D01*
X029437Y002219D01*
X029257Y002219D01*
X029257Y002444D02*
X029302Y002490D01*
X029392Y002490D01*
X029437Y002444D01*
X029642Y002490D02*
X029642Y002219D01*
X029732Y002219D02*
X029552Y002219D01*
X029732Y002399D02*
X029642Y002490D01*
X029846Y002399D02*
X029846Y002219D01*
X029846Y002354D02*
X030027Y002354D01*
X030027Y002399D02*
X029937Y002490D01*
X029846Y002399D01*
X030027Y002399D02*
X030027Y002219D01*
X030302Y002569D02*
X030392Y002569D01*
X030437Y002614D01*
X030552Y002569D02*
X030732Y002569D01*
X030642Y002569D02*
X030642Y002840D01*
X030732Y002749D01*
X030846Y002749D02*
X030846Y002569D01*
X030846Y002704D02*
X031027Y002704D01*
X031027Y002749D02*
X030937Y002840D01*
X030846Y002749D01*
X031027Y002749D02*
X031027Y002569D01*
X031302Y002490D02*
X031437Y002354D01*
X031257Y002354D01*
X031302Y002219D02*
X031302Y002490D01*
X031642Y002490D02*
X031642Y002219D01*
X031732Y002219D02*
X031552Y002219D01*
X031732Y002399D02*
X031642Y002490D01*
X031846Y002399D02*
X031846Y002219D01*
X031846Y002354D02*
X032027Y002354D01*
X032027Y002399D02*
X031937Y002490D01*
X031846Y002399D01*
X032027Y002399D02*
X032027Y002219D01*
X032302Y002569D02*
X032392Y002569D01*
X032437Y002614D01*
X032437Y002704D02*
X032347Y002749D01*
X032302Y002749D01*
X032257Y002704D01*
X032257Y002614D01*
X032302Y002569D01*
X032437Y002704D02*
X032437Y002840D01*
X032257Y002840D01*
X032642Y002840D02*
X032642Y002569D01*
X032732Y002569D02*
X032552Y002569D01*
X032732Y002749D02*
X032642Y002840D01*
X032846Y002749D02*
X032846Y002569D01*
X032846Y002704D02*
X033027Y002704D01*
X033027Y002749D02*
X032937Y002840D01*
X032846Y002749D01*
X033027Y002749D02*
X033027Y002569D01*
X030437Y002794D02*
X030392Y002840D01*
X030302Y002840D01*
X030257Y002794D01*
X030257Y002749D01*
X030302Y002704D01*
X030257Y002659D01*
X030257Y002614D01*
X030302Y002569D01*
X030302Y002704D02*
X030347Y002704D01*
X030862Y004330D02*
X030817Y004375D01*
X030817Y004465D01*
X030862Y004510D01*
X030952Y004510D01*
X030997Y004465D01*
X030997Y004420D01*
X030952Y004330D01*
X031087Y004330D01*
X031087Y004510D01*
X031042Y004625D02*
X031087Y004670D01*
X031087Y004760D01*
X031042Y004805D01*
X030997Y004805D01*
X030817Y004625D01*
X030817Y004805D01*
X030862Y005330D02*
X030817Y005375D01*
X030817Y005465D01*
X030862Y005510D01*
X030952Y005510D01*
X030997Y005465D01*
X030997Y005420D01*
X030952Y005330D01*
X031087Y005330D01*
X031087Y005510D01*
X031042Y005625D02*
X030862Y005625D01*
X031042Y005805D01*
X030862Y005805D01*
X030817Y005760D01*
X030817Y005670D01*
X030862Y005625D01*
X031042Y005625D02*
X031087Y005670D01*
X031087Y005760D01*
X031042Y005805D01*
X030952Y006330D02*
X030952Y006510D01*
X030997Y006625D02*
X030952Y006670D01*
X030952Y006760D01*
X030907Y006805D01*
X030862Y006805D01*
X030817Y006760D01*
X030817Y006670D01*
X030862Y006625D01*
X030907Y006625D01*
X030952Y006670D01*
X030997Y006625D02*
X031042Y006625D01*
X031087Y006670D01*
X031087Y006760D01*
X031042Y006805D01*
X030997Y006805D01*
X030952Y006760D01*
X030817Y006465D02*
X031087Y006465D01*
X030952Y006330D01*
X030952Y007330D02*
X030952Y007510D01*
X030952Y007625D02*
X030952Y007760D01*
X030907Y007805D01*
X030862Y007805D01*
X030817Y007760D01*
X030817Y007670D01*
X030862Y007625D01*
X030952Y007625D01*
X031042Y007715D01*
X031087Y007805D01*
X031087Y007465D02*
X030952Y007330D01*
X030817Y007465D02*
X031087Y007465D01*
X030952Y008330D02*
X030952Y008510D01*
X030952Y008625D02*
X030952Y008805D01*
X031087Y008760D02*
X030952Y008625D01*
X030817Y008760D02*
X031087Y008760D01*
X031087Y008465D02*
X030817Y008465D01*
X030952Y008330D02*
X031087Y008465D01*
X030952Y009330D02*
X030952Y009510D01*
X031087Y009465D02*
X030952Y009330D01*
X030817Y009465D02*
X031087Y009465D01*
X031042Y009625D02*
X031087Y009670D01*
X031087Y009760D01*
X031042Y009805D01*
X030997Y009805D01*
X030817Y009625D01*
X030817Y009805D01*
X030952Y010330D02*
X030952Y010510D01*
X030817Y010465D02*
X031087Y010465D01*
X030952Y010330D01*
X030862Y010625D02*
X031042Y010625D01*
X031087Y010670D01*
X031087Y010760D01*
X031042Y010805D01*
X030862Y010625D01*
X030817Y010670D01*
X030817Y010760D01*
X030862Y010805D01*
X031042Y010805D01*
X031052Y011310D02*
X031097Y011355D01*
X031097Y011445D01*
X031052Y011490D01*
X031007Y011490D01*
X030962Y011445D01*
X030917Y011490D01*
X030872Y011490D01*
X030827Y011445D01*
X030827Y011355D01*
X030872Y011310D01*
X030962Y011400D02*
X030962Y011445D01*
X031007Y011605D02*
X030962Y011650D01*
X030962Y011740D01*
X030917Y011785D01*
X030872Y011785D01*
X030827Y011740D01*
X030827Y011650D01*
X030872Y011605D01*
X030917Y011605D01*
X030962Y011650D01*
X031007Y011605D02*
X031052Y011605D01*
X031097Y011650D01*
X031097Y011740D01*
X031052Y011785D01*
X031007Y011785D01*
X030962Y011740D01*
X031052Y012310D02*
X031097Y012355D01*
X031097Y012445D01*
X031052Y012490D01*
X031007Y012490D01*
X030962Y012445D01*
X030917Y012490D01*
X030872Y012490D01*
X030827Y012445D01*
X030827Y012355D01*
X030872Y012310D01*
X030962Y012400D02*
X030962Y012445D01*
X030962Y012605D02*
X030962Y012740D01*
X030917Y012785D01*
X030872Y012785D01*
X030827Y012740D01*
X030827Y012650D01*
X030872Y012605D01*
X030962Y012605D01*
X031052Y012695D01*
X031097Y012785D01*
X031052Y013310D02*
X031097Y013355D01*
X031097Y013445D01*
X031052Y013490D01*
X031007Y013490D01*
X030962Y013445D01*
X030917Y013490D01*
X030872Y013490D01*
X030827Y013445D01*
X030827Y013355D01*
X030872Y013310D01*
X030962Y013400D02*
X030962Y013445D01*
X030962Y013605D02*
X030962Y013785D01*
X030827Y013740D02*
X031097Y013740D01*
X030962Y013605D01*
X031052Y014310D02*
X031097Y014355D01*
X031097Y014445D01*
X031052Y014490D01*
X031007Y014490D01*
X030962Y014445D01*
X030917Y014490D01*
X030872Y014490D01*
X030827Y014445D01*
X030827Y014355D01*
X030872Y014310D01*
X030962Y014400D02*
X030962Y014445D01*
X031052Y014605D02*
X031097Y014650D01*
X031097Y014740D01*
X031052Y014785D01*
X031007Y014785D01*
X030827Y014605D01*
X030827Y014785D01*
X030862Y015300D02*
X030817Y015345D01*
X030817Y015435D01*
X030862Y015480D01*
X030907Y015480D01*
X030952Y015435D01*
X030952Y015390D01*
X030952Y015435D02*
X030997Y015480D01*
X031042Y015480D01*
X031087Y015435D01*
X031087Y015345D01*
X031042Y015300D01*
X031042Y015595D02*
X030862Y015595D01*
X031042Y015775D01*
X030862Y015775D01*
X030817Y015730D01*
X030817Y015640D01*
X030862Y015595D01*
X031042Y015595D02*
X031087Y015640D01*
X031087Y015730D01*
X031042Y015775D01*
X031042Y016300D02*
X031087Y016345D01*
X031087Y016435D01*
X031042Y016480D01*
X030997Y016480D01*
X030817Y016300D01*
X030817Y016480D01*
X030862Y016595D02*
X030907Y016595D01*
X030952Y016640D01*
X030952Y016730D01*
X030907Y016775D01*
X030862Y016775D01*
X030817Y016730D01*
X030817Y016640D01*
X030862Y016595D01*
X030952Y016640D02*
X030997Y016595D01*
X031042Y016595D01*
X031087Y016640D01*
X031087Y016730D01*
X031042Y016775D01*
X030997Y016775D01*
X030952Y016730D01*
X031042Y017300D02*
X031087Y017345D01*
X031087Y017435D01*
X031042Y017480D01*
X030997Y017480D01*
X030817Y017300D01*
X030817Y017480D01*
X030862Y017595D02*
X030817Y017640D01*
X030817Y017730D01*
X030862Y017775D01*
X030907Y017775D01*
X030952Y017730D01*
X030952Y017595D01*
X030862Y017595D01*
X030952Y017595D02*
X031042Y017685D01*
X031087Y017775D01*
X031027Y019229D02*
X030891Y019229D01*
X030846Y019274D01*
X030846Y019454D01*
X030891Y019500D01*
X031027Y019500D01*
X031027Y019229D01*
X030732Y019229D02*
X030552Y019409D01*
X030552Y019454D01*
X030597Y019500D01*
X030687Y019500D01*
X030732Y019454D01*
X030732Y019229D02*
X030552Y019229D01*
X030437Y019229D02*
X030257Y019229D01*
X030347Y019229D02*
X030347Y019500D01*
X030437Y019409D01*
X030027Y019500D02*
X030027Y019229D01*
X029891Y019229D01*
X029846Y019274D01*
X029846Y019454D01*
X029891Y019500D01*
X030027Y019500D01*
X029982Y019679D02*
X030027Y019724D01*
X029982Y019679D02*
X029891Y019679D01*
X029846Y019724D01*
X029846Y019769D01*
X029891Y019814D01*
X029982Y019814D01*
X030027Y019859D01*
X030027Y019904D01*
X029982Y019950D01*
X029891Y019950D01*
X029846Y019904D01*
X029732Y019950D02*
X029597Y019950D01*
X029552Y019904D01*
X029552Y019724D01*
X029597Y019679D01*
X029732Y019679D01*
X029732Y019950D01*
X029437Y019859D02*
X029347Y019950D01*
X029257Y019859D01*
X029257Y019679D01*
X029257Y019814D02*
X029437Y019814D01*
X029437Y019859D02*
X029437Y019679D01*
X029392Y019500D02*
X029302Y019500D01*
X029257Y019454D01*
X029437Y019274D01*
X029392Y019229D01*
X029302Y019229D01*
X029257Y019274D01*
X029257Y019454D01*
X029392Y019500D02*
X029437Y019454D01*
X029437Y019274D01*
X029552Y019229D02*
X029732Y019229D01*
X029552Y019409D01*
X029552Y019454D01*
X029597Y019500D01*
X029687Y019500D01*
X029732Y019454D01*
X030257Y019679D02*
X030437Y019679D01*
X030437Y019950D01*
X030552Y019904D02*
X030597Y019950D01*
X030687Y019950D01*
X030732Y019904D01*
X030732Y019724D01*
X030687Y019679D01*
X030597Y019679D01*
X030552Y019724D01*
X030846Y019724D02*
X030891Y019679D01*
X030982Y019679D01*
X031027Y019724D01*
X030982Y019814D02*
X031027Y019859D01*
X031027Y019904D01*
X030982Y019950D01*
X030891Y019950D01*
X030846Y019904D01*
X030891Y019814D02*
X030846Y019769D01*
X030846Y019724D01*
X030891Y019814D02*
X030982Y019814D01*
X029027Y019769D02*
X028891Y019769D01*
X028846Y019814D01*
X028846Y019904D01*
X028891Y019950D01*
X029027Y019950D01*
X029027Y019679D01*
X028937Y019769D02*
X028846Y019679D01*
X028732Y019679D02*
X028552Y019859D01*
X028437Y019859D02*
X028347Y019950D01*
X028347Y019679D01*
X028437Y019679D02*
X028257Y019679D01*
X028302Y019500D02*
X028392Y019500D01*
X028437Y019454D01*
X028437Y019409D01*
X028392Y019364D01*
X028257Y019364D01*
X028257Y019274D02*
X028257Y019454D01*
X028302Y019500D01*
X028257Y019274D02*
X028302Y019229D01*
X028392Y019229D01*
X028437Y019274D01*
X028552Y019229D02*
X028732Y019229D01*
X028642Y019229D02*
X028642Y019500D01*
X028732Y019409D01*
X028846Y019454D02*
X028891Y019500D01*
X029027Y019500D01*
X029027Y019229D01*
X028891Y019229D01*
X028846Y019274D01*
X028846Y019454D01*
X028552Y019679D02*
X028732Y019859D01*
X028027Y019950D02*
X027846Y019950D01*
X027937Y019950D02*
X027937Y019679D01*
X027891Y019500D02*
X028027Y019500D01*
X028027Y019229D01*
X027891Y019229D01*
X027846Y019274D01*
X027846Y019454D01*
X027891Y019500D01*
X027732Y019409D02*
X027642Y019500D01*
X027642Y019229D01*
X027732Y019229D02*
X027552Y019229D01*
X027437Y019274D02*
X027392Y019229D01*
X027302Y019229D01*
X027257Y019274D01*
X027257Y019319D01*
X027302Y019364D01*
X027392Y019364D01*
X027437Y019409D01*
X027437Y019454D01*
X027392Y019500D01*
X027302Y019500D01*
X027257Y019454D01*
X027257Y019409D01*
X027302Y019364D01*
X027392Y019364D02*
X027437Y019319D01*
X027437Y019274D01*
X027027Y019229D02*
X026891Y019229D01*
X026846Y019274D01*
X026846Y019454D01*
X026891Y019500D01*
X027027Y019500D01*
X027027Y019229D01*
X026732Y019229D02*
X026552Y019229D01*
X026642Y019229D02*
X026642Y019500D01*
X026732Y019409D01*
X026437Y019500D02*
X026257Y019500D01*
X026257Y019454D01*
X026437Y019274D01*
X026437Y019229D01*
X026027Y019229D02*
X025891Y019229D01*
X025846Y019274D01*
X025846Y019454D01*
X025891Y019500D01*
X026027Y019500D01*
X026027Y019229D01*
X025732Y019229D02*
X025552Y019229D01*
X025642Y019229D02*
X025642Y019500D01*
X025732Y019409D01*
X025437Y019364D02*
X025302Y019364D01*
X025257Y019319D01*
X025257Y019274D01*
X025302Y019229D01*
X025392Y019229D01*
X025437Y019274D01*
X025437Y019364D01*
X025347Y019454D01*
X025257Y019500D01*
X025257Y019679D02*
X025437Y019679D01*
X025257Y019859D01*
X025257Y019904D01*
X025302Y019950D01*
X025392Y019950D01*
X025437Y019904D01*
X025552Y019859D02*
X025732Y019679D01*
X025732Y019859D02*
X025552Y019679D01*
X025937Y019679D02*
X025937Y019950D01*
X026027Y019950D02*
X025846Y019950D01*
X026257Y019904D02*
X026257Y019859D01*
X026437Y019679D01*
X026257Y019679D01*
X026257Y019904D02*
X026302Y019950D01*
X026392Y019950D01*
X026437Y019904D01*
X026552Y019859D02*
X026732Y019679D01*
X026846Y019679D02*
X026937Y019769D01*
X026891Y019769D02*
X027027Y019769D01*
X027027Y019679D02*
X027027Y019950D01*
X026891Y019950D01*
X026846Y019904D01*
X026846Y019814D01*
X026891Y019769D01*
X026732Y019859D02*
X026552Y019679D01*
X027257Y019679D02*
X027437Y019679D01*
X027347Y019679D02*
X027347Y019950D01*
X027437Y019859D01*
X027552Y019859D02*
X027732Y019679D01*
X027732Y019859D02*
X027552Y019679D01*
X025027Y019679D02*
X025027Y019950D01*
X024891Y019950D01*
X024846Y019904D01*
X024846Y019814D01*
X024891Y019769D01*
X025027Y019769D01*
X024937Y019769D02*
X024846Y019679D01*
X024732Y019679D02*
X024552Y019859D01*
X024437Y019904D02*
X024392Y019950D01*
X024302Y019950D01*
X024257Y019904D01*
X024257Y019859D01*
X024302Y019814D01*
X024257Y019769D01*
X024257Y019724D01*
X024302Y019679D01*
X024392Y019679D01*
X024437Y019724D01*
X024552Y019679D02*
X024732Y019859D01*
X024642Y019500D02*
X024642Y019229D01*
X024732Y019229D02*
X024552Y019229D01*
X024437Y019274D02*
X024392Y019229D01*
X024302Y019229D01*
X024257Y019274D01*
X024257Y019364D01*
X024302Y019409D01*
X024347Y019409D01*
X024437Y019364D01*
X024437Y019500D01*
X024257Y019500D01*
X024027Y019500D02*
X023891Y019500D01*
X023846Y019454D01*
X023846Y019274D01*
X023891Y019229D01*
X024027Y019229D01*
X024027Y019500D01*
X023937Y019679D02*
X023937Y019950D01*
X024027Y019950D02*
X023846Y019950D01*
X023732Y019859D02*
X023552Y019679D01*
X023437Y019724D02*
X023392Y019679D01*
X023302Y019679D01*
X023257Y019724D01*
X023257Y019769D01*
X023302Y019814D01*
X023347Y019814D01*
X023302Y019814D02*
X023257Y019859D01*
X023257Y019904D01*
X023302Y019950D01*
X023392Y019950D01*
X023437Y019904D01*
X023552Y019859D02*
X023732Y019679D01*
X023642Y019500D02*
X023642Y019229D01*
X023732Y019229D02*
X023552Y019229D01*
X023437Y019364D02*
X023257Y019364D01*
X023302Y019229D02*
X023302Y019500D01*
X023437Y019364D01*
X023642Y019500D02*
X023732Y019409D01*
X024302Y019814D02*
X024347Y019814D01*
X024642Y019500D02*
X024732Y019409D01*
X024846Y019454D02*
X024891Y019500D01*
X025027Y019500D01*
X025027Y019229D01*
X024891Y019229D01*
X024846Y019274D01*
X024846Y019454D01*
X035347Y019470D02*
X035347Y019290D01*
X035527Y019470D01*
X035572Y019470D01*
X035617Y019425D01*
X035617Y019335D01*
X035572Y019290D01*
X035572Y019585D02*
X035617Y019630D01*
X035617Y019720D01*
X035572Y019765D01*
X035527Y019765D01*
X035482Y019720D01*
X035437Y019765D01*
X035392Y019765D01*
X035347Y019720D01*
X035347Y019630D01*
X035392Y019585D01*
X035482Y019675D02*
X035482Y019720D01*
X035482Y018765D02*
X035392Y018765D01*
X035347Y018720D01*
X035347Y018630D01*
X035392Y018585D01*
X035482Y018585D02*
X035527Y018675D01*
X035527Y018720D01*
X035482Y018765D01*
X035617Y018765D02*
X035617Y018585D01*
X035482Y018585D01*
X035527Y018470D02*
X035572Y018470D01*
X035617Y018425D01*
X035617Y018335D01*
X035572Y018290D01*
X035527Y018470D02*
X035347Y018290D01*
X035347Y018470D01*
X035572Y017765D02*
X035392Y017585D01*
X035347Y017585D01*
X035347Y017470D02*
X035347Y017290D01*
X035527Y017470D01*
X035572Y017470D01*
X035617Y017425D01*
X035617Y017335D01*
X035572Y017290D01*
X035617Y017585D02*
X035617Y017765D01*
X035572Y017765D01*
X035572Y016765D02*
X035392Y016765D01*
X035347Y016720D01*
X035347Y016630D01*
X035392Y016585D01*
X035482Y016630D02*
X035482Y016765D01*
X035572Y016765D02*
X035617Y016720D01*
X035617Y016630D01*
X035572Y016585D01*
X035527Y016585D01*
X035482Y016630D01*
X035527Y016470D02*
X035572Y016470D01*
X035617Y016425D01*
X035617Y016335D01*
X035572Y016290D01*
X035527Y016470D02*
X035347Y016290D01*
X035347Y016470D01*
X035347Y015765D02*
X035347Y015585D01*
X035347Y015675D02*
X035617Y015675D01*
X035527Y015585D01*
X035527Y015470D02*
X035482Y015425D01*
X035437Y015470D01*
X035392Y015470D01*
X035347Y015425D01*
X035347Y015335D01*
X035392Y015290D01*
X035482Y015380D02*
X035482Y015425D01*
X035527Y015470D02*
X035572Y015470D01*
X035617Y015425D01*
X035617Y015335D01*
X035572Y015290D01*
X035572Y014765D02*
X035527Y014765D01*
X035482Y014720D01*
X035437Y014765D01*
X035392Y014765D01*
X035347Y014720D01*
X035347Y014630D01*
X035392Y014585D01*
X035392Y014470D02*
X035347Y014425D01*
X035347Y014335D01*
X035392Y014290D01*
X035482Y014380D02*
X035482Y014425D01*
X035437Y014470D01*
X035392Y014470D01*
X035482Y014425D02*
X035527Y014470D01*
X035572Y014470D01*
X035617Y014425D01*
X035617Y014335D01*
X035572Y014290D01*
X035572Y014585D02*
X035617Y014630D01*
X035617Y014720D01*
X035572Y014765D01*
X035482Y014720D02*
X035482Y014675D01*
X035482Y013795D02*
X035392Y013795D01*
X035347Y013750D01*
X035347Y013660D01*
X035392Y013615D01*
X035482Y013615D02*
X035527Y013705D01*
X035527Y013750D01*
X035482Y013795D01*
X035617Y013795D02*
X035617Y013615D01*
X035482Y013615D01*
X035527Y013500D02*
X035482Y013455D01*
X035437Y013500D01*
X035392Y013500D01*
X035347Y013455D01*
X035347Y013365D01*
X035392Y013320D01*
X035482Y013410D02*
X035482Y013455D01*
X035527Y013500D02*
X035572Y013500D01*
X035617Y013455D01*
X035617Y013365D01*
X035572Y013320D01*
X035572Y012795D02*
X035392Y012615D01*
X035347Y012615D01*
X035392Y012500D02*
X035347Y012455D01*
X035347Y012365D01*
X035392Y012320D01*
X035482Y012410D02*
X035482Y012455D01*
X035437Y012500D01*
X035392Y012500D01*
X035482Y012455D02*
X035527Y012500D01*
X035572Y012500D01*
X035617Y012455D01*
X035617Y012365D01*
X035572Y012320D01*
X035617Y012615D02*
X035617Y012795D01*
X035572Y012795D01*
X035572Y011795D02*
X035392Y011795D01*
X035347Y011750D01*
X035347Y011660D01*
X035392Y011615D01*
X035482Y011660D02*
X035482Y011795D01*
X035572Y011795D02*
X035617Y011750D01*
X035617Y011660D01*
X035572Y011615D01*
X035527Y011615D01*
X035482Y011660D01*
X035527Y011500D02*
X035482Y011455D01*
X035437Y011500D01*
X035392Y011500D01*
X035347Y011455D01*
X035347Y011365D01*
X035392Y011320D01*
X035482Y011410D02*
X035482Y011455D01*
X035527Y011500D02*
X035572Y011500D01*
X035617Y011455D01*
X035617Y011365D01*
X035572Y011320D01*
X035347Y010795D02*
X035347Y010615D01*
X035347Y010705D02*
X035617Y010705D01*
X035527Y010615D01*
X035482Y010500D02*
X035482Y010320D01*
X035617Y010455D01*
X035347Y010455D01*
X035392Y009795D02*
X035347Y009750D01*
X035347Y009660D01*
X035392Y009615D01*
X035482Y009705D02*
X035482Y009750D01*
X035437Y009795D01*
X035392Y009795D01*
X035482Y009750D02*
X035527Y009795D01*
X035572Y009795D01*
X035617Y009750D01*
X035617Y009660D01*
X035572Y009615D01*
X035482Y009500D02*
X035482Y009320D01*
X035617Y009455D01*
X035347Y009455D01*
X035392Y008795D02*
X035347Y008750D01*
X035347Y008660D01*
X035392Y008615D01*
X035482Y008615D02*
X035527Y008705D01*
X035527Y008750D01*
X035482Y008795D01*
X035392Y008795D01*
X035482Y008615D02*
X035617Y008615D01*
X035617Y008795D01*
X035482Y008500D02*
X035482Y008320D01*
X035617Y008455D01*
X035347Y008455D01*
X035572Y007795D02*
X035392Y007615D01*
X035347Y007615D01*
X035347Y007455D02*
X035617Y007455D01*
X035482Y007320D01*
X035482Y007500D01*
X035617Y007615D02*
X035617Y007795D01*
X035572Y007795D01*
X035572Y006785D02*
X035392Y006785D01*
X035347Y006740D01*
X035347Y006650D01*
X035392Y006605D01*
X035482Y006650D02*
X035482Y006785D01*
X035572Y006785D02*
X035617Y006740D01*
X035617Y006650D01*
X035572Y006605D01*
X035527Y006605D01*
X035482Y006650D01*
X035482Y006490D02*
X035482Y006310D01*
X035617Y006445D01*
X035347Y006445D01*
X035347Y005785D02*
X035347Y005605D01*
X035347Y005695D02*
X035617Y005695D01*
X035527Y005605D01*
X035482Y005490D02*
X035392Y005490D01*
X035347Y005445D01*
X035347Y005355D01*
X035392Y005310D01*
X035482Y005310D02*
X035527Y005400D01*
X035527Y005445D01*
X035482Y005490D01*
X035617Y005490D02*
X035617Y005310D01*
X035482Y005310D01*
X035527Y004785D02*
X035482Y004740D01*
X035437Y004785D01*
X035392Y004785D01*
X035347Y004740D01*
X035347Y004650D01*
X035392Y004605D01*
X035392Y004490D02*
X035347Y004445D01*
X035347Y004355D01*
X035392Y004310D01*
X035482Y004310D02*
X035527Y004400D01*
X035527Y004445D01*
X035482Y004490D01*
X035392Y004490D01*
X035482Y004310D02*
X035617Y004310D01*
X035617Y004490D01*
X035572Y004605D02*
X035617Y004650D01*
X035617Y004740D01*
X035572Y004785D01*
X035527Y004785D01*
X035482Y004740D02*
X035482Y004695D01*
X011427Y019579D02*
X011291Y019579D01*
X011246Y019624D01*
X011246Y019804D01*
X011291Y019850D01*
X011427Y019850D01*
X011427Y019579D01*
X011132Y019579D02*
X010952Y019579D01*
X011042Y019579D02*
X011042Y019850D01*
X011132Y019759D01*
X010837Y019804D02*
X010837Y019624D01*
X010657Y019804D01*
X010657Y019624D01*
X010702Y019579D01*
X010792Y019579D01*
X010837Y019624D01*
X010837Y019804D02*
X010792Y019850D01*
X010702Y019850D01*
X010657Y019804D01*
X010427Y019500D02*
X010291Y019500D01*
X010246Y019454D01*
X010246Y019274D01*
X010291Y019229D01*
X010427Y019229D01*
X010427Y019500D01*
X010132Y019409D02*
X010042Y019500D01*
X010042Y019229D01*
X010132Y019229D02*
X009952Y019229D01*
X009837Y019229D02*
X009657Y019229D01*
X009747Y019229D02*
X009747Y019500D01*
X009837Y019409D01*
X009427Y019579D02*
X009291Y019579D01*
X009246Y019624D01*
X009246Y019804D01*
X009291Y019850D01*
X009427Y019850D01*
X009427Y019579D01*
X009132Y019579D02*
X008952Y019579D01*
X009042Y019579D02*
X009042Y019850D01*
X009132Y019759D01*
X008837Y019804D02*
X008792Y019850D01*
X008702Y019850D01*
X008657Y019804D01*
X008657Y019759D01*
X008837Y019579D01*
X008657Y019579D01*
X008427Y019500D02*
X008291Y019500D01*
X008246Y019454D01*
X008246Y019274D01*
X008291Y019229D01*
X008427Y019229D01*
X008427Y019500D01*
X008132Y019409D02*
X008042Y019500D01*
X008042Y019229D01*
X008132Y019229D02*
X007952Y019229D01*
X007837Y019274D02*
X007792Y019229D01*
X007702Y019229D01*
X007657Y019274D01*
X007657Y019319D01*
X007702Y019364D01*
X007747Y019364D01*
X007702Y019364D02*
X007657Y019409D01*
X007657Y019454D01*
X007702Y019500D01*
X007792Y019500D01*
X007837Y019454D01*
X007427Y019624D02*
X007382Y019579D01*
X007291Y019579D01*
X007246Y019624D01*
X007246Y019714D01*
X007337Y019714D01*
X007427Y019804D02*
X007427Y019624D01*
X007427Y019804D02*
X007382Y019850D01*
X007291Y019850D01*
X007246Y019804D01*
X007132Y019850D02*
X006952Y019579D01*
X006952Y019850D01*
X006837Y019850D02*
X006702Y019850D01*
X006657Y019804D01*
X006657Y019624D01*
X006702Y019579D01*
X006837Y019579D01*
X006837Y019850D01*
X007132Y019850D02*
X007132Y019579D01*
X006427Y019500D02*
X006427Y019229D01*
X006427Y019319D02*
X006291Y019319D01*
X006246Y019364D01*
X006246Y019454D01*
X006291Y019500D01*
X006427Y019500D01*
X006337Y019319D02*
X006246Y019229D01*
X006132Y019229D02*
X005952Y019229D01*
X005837Y019229D02*
X005837Y019500D01*
X005657Y019500D01*
X005747Y019364D02*
X005837Y019364D01*
X005952Y019500D02*
X006132Y019500D01*
X006132Y019229D01*
X006132Y019364D02*
X006042Y019364D01*
X006046Y019629D02*
X006046Y019809D01*
X006137Y019900D01*
X006227Y019809D01*
X006227Y019629D01*
X006227Y019764D02*
X006046Y019764D01*
D18*
X007102Y019279D03*
X008102Y019829D03*
X009102Y019279D03*
X010102Y019829D03*
X011102Y019279D03*
X011702Y002819D03*
X010702Y002269D03*
X009702Y002819D03*
X012702Y002269D03*
X013702Y002819D03*
X014702Y002269D03*
D19*
X027702Y002844D03*
X028702Y002244D03*
X029702Y002844D03*
X030702Y002244D03*
X031702Y002844D03*
X032702Y002244D03*
M02*
